<svg xmlns="http://www.w3.org/2000/svg" width="30" height="30" viewBox="0 0 30 30">
  <path id="Icon_material-copyright" data-name="Icon material-copyright" d="M15.12,16.29a3.835,3.835,0,0,1,.45-1.305,2.624,2.624,0,0,1,.885-.93,2.662,2.662,0,0,1,1.365-.345,2.719,2.719,0,0,1,.945.195,2.418,2.418,0,0,1,.78.54,2.888,2.888,0,0,1,.51.8,2.627,2.627,0,0,1,.21.96H22.95a5.369,5.369,0,0,0-.42-1.935,4.5,4.5,0,0,0-1.05-1.515,4.9,4.9,0,0,0-1.62-.99,5.794,5.794,0,0,0-2.085-.345,5.862,5.862,0,0,0-2.55.51,5.158,5.158,0,0,0-1.8,1.38,5.639,5.639,0,0,0-1.065,2.04,8.785,8.785,0,0,0-.36,2.46v.405a8.782,8.782,0,0,0,.345,2.46A5.453,5.453,0,0,0,13.41,22.7a5.121,5.121,0,0,0,1.8,1.365,6.087,6.087,0,0,0,2.55.51,5.721,5.721,0,0,0,1.98-.345,5.116,5.116,0,0,0,1.62-.945,4.579,4.579,0,0,0,1.11-1.41,4.037,4.037,0,0,0,.45-1.725H20.235a2.136,2.136,0,0,1-.225.87,2.207,2.207,0,0,1-.54.69,2.363,2.363,0,0,1-.78.45,2.978,2.978,0,0,1-.9.15,2.548,2.548,0,0,1-1.335-.345,2.624,2.624,0,0,1-.885-.93,3.919,3.919,0,0,1-.45-1.32,10.11,10.11,0,0,1-.12-1.5v-.405a9.994,9.994,0,0,1,.12-1.515ZM18,3A15,15,0,1,0,33,18,15.005,15.005,0,0,0,18,3Zm0,27A12,12,0,1,1,30,18,12.016,12.016,0,0,1,18,30Z" transform="translate(-3 -3)" fill="#05090f"/>
</svg>
